<?xml version="1.0" encoding="iso-8859-1"?>
<!-- Generator: Adobe Illustrator 19.0.0, SVG Export Plug-In . SVG Version: 6.00 Build 0)  -->
<svg version="1.1" id="Capa_1" xmlns="http://www.w3.org/2000/svg" xmlns:xlink="http://www.w3.org/1999/xlink" x="0px" y="0px"
	 viewBox="0 0 480 480" style="enable-background:new 0 0 480 480;" xml:space="preserve">
<path style="fill:#0378A3;" d="M24,138.434V83.81h304v264H24v-39.112v-29.336V138.434z"/>
<path style="fill:#29485A;" d="M440,411.81h32v-64v-64h-72l-16-24v-96h64l-8-24H328v208H40v64h32"/>
<g>
	<circle style="fill:#333333;" cx="392" cy="411.81" r="48"/>
	<circle style="fill:#333333;" cx="112" cy="419.81" r="40"/>
	<circle style="fill:#333333;" cx="208" cy="419.81" r="40"/>
</g>
<path style="fill:#3FA9F5;" d="M440,163.81l32,120h-72l-16-24v-96H440z"/>
<circle style="fill:#1A1A1A;" cx="392" cy="411.81" r="16"/>
<path style="fill:#ED1C24;" d="M40,347.81H8v32h32"/>
<path style="fill:#E6E6E6;" d="M432,307.81h40v40h-40V307.81z"/>
<path style="fill:#ED1C24;" d="M96,107.81c0,0,0,96,88,184c88-88,88-184,88-184c0-48.601-39.399-88-88-88S96,59.209,96,107.81z"/>
<circle style="fill:#F2F2F2;" cx="184" cy="107.81" r="40"/>
<path d="M392,387.81c-13.255,0-24,10.745-24,24s10.745,24,24,24s24-10.745,24-24l0,0C416,398.555,405.255,387.81,392,387.81z
	 M392,419.81c-4.418,0-8-3.582-8-8s3.582-8,8-8s8,3.582,8,8S396.418,419.81,392,419.81z"/>
<circle cx="208" cy="419.81" r="16"/>
<circle cx="112" cy="419.81" r="16"/>
<path d="M8,387.81h24v24c0,4.418,3.582,8,8,8h24c-0.104,26.616,21.388,48.276,48.003,48.38c26.616,0.104,48.276-21.388,48.38-48.003
	c0.104-26.615-21.388-48.276-48.003-48.38c-20.443-0.08-38.713,12.747-45.58,32.003H48v-48h280c4.418,0,8-3.582,8-8v-200h98.232
	l2.664,8H384c-4.418,0-8,3.582-8,8v96c0.003,1.58,0.47,3.124,1.344,4.44l16,24c1.484,2.225,3.982,3.56,6.656,3.56h64v8h-32
	c-4.418,0-8,3.582-8,8v40c0,4.418,3.582,8,8,8h32v48h-16.64c-4.391-30.574-32.736-51.8-63.311-47.409
	c-24.574,3.529-43.88,22.835-47.409,47.409H253.2c-8.91-24.892-36.312-37.849-61.204-28.939s-37.849,36.312-28.939,61.204
	c8.91,24.892,36.312,37.849,61.204,28.939c19.082-6.83,31.795-24.937,31.739-45.204h80.64c4.391,30.574,32.736,51.8,63.311,47.409
	c24.574-3.529,43.88-22.835,47.409-47.409H472c4.418,0,8-3.582,8-8v-128c-0.046-0.415-0.129-0.824-0.248-1.224
	c0.016-0.28,0.016-0.56,0-0.84l-29.416-110.32c4.194-1.225,6.602-5.618,5.377-9.813c-0.032-0.111-0.067-0.222-0.105-0.331l-8-24
	c-1.09-3.274-4.157-5.48-7.608-5.472H336v-48c0-4.418-3.582-8-8-8h-32c-4.418,0-8,3.582-8,8s3.582,8,8,8h24v248H32v-248h40
	c4.418,0,8-3.582,8-8s-3.582-8-8-8H24c-4.418,0-8,3.582-8,8v256H8c-4.418,0-8,3.582-8,8v32C0,384.228,3.582,387.81,8,387.81
	L8,387.81z M112,387.81c17.673,0,32,14.327,32,32s-14.327,32-32,32s-32-14.327-32-32S94.327,387.81,112,387.81z M208,451.81
	c-17.673,0-32-14.327-32-32s14.327-32,32-32s32,14.327,32,32S225.673,451.81,208,451.81z M392,451.81c-22.091,0-40-17.909-40-40
	s17.909-40,40-40s40,17.909,40,40C431.974,433.89,414.08,451.783,392,451.81z M440,339.81v-24h24v24H440z M404.28,275.81L392,257.41
	v-85.6h41.848l27.752,104H404.28z M16,355.81h16v16H16V355.81z"/>
<path d="M88,107.81c0,4.056,1.024,100.336,90.344,189.656c3.124,3.123,8.188,3.123,11.312,0C278.976,208.146,280,111.866,280,107.81
	c0-53.019-42.981-96-96-96S88,54.79,88,107.81z M264,107.81c0,0.904-0.928,89.488-80,172.544c-78.784-82.776-80-171.576-80-172.544
	c0-44.183,35.817-80,80-80S264,63.627,264,107.81z"/>
<path d="M136,107.81c0,26.51,21.49,48,48,48s48-21.49,48-48s-21.49-48-48-48C157.501,59.836,136.027,81.311,136,107.81z M216,107.81
	c0,17.673-14.327,32-32,32s-32-14.327-32-32s14.327-32,32-32S216,90.137,216,107.81z"/>
<g>
</g>
<g>
</g>
<g>
</g>
<g>
</g>
<g>
</g>
<g>
</g>
<g>
</g>
<g>
</g>
<g>
</g>
<g>
</g>
<g>
</g>
<g>
</g>
<g>
</g>
<g>
</g>
<g>
</g>
</svg>
